<mxfile host="65bd71144e">
    <diagram id="S1ZJYg7Er-kijTexnGPJ" name="ページ1">
        <mxGraphModel dx="457" dy="383" grid="0" gridSize="10" guides="1" tooltips="1" connect="1" arrows="1" fold="1" page="1" pageScale="1" pageWidth="827" pageHeight="1169" math="0" shadow="0">
            <root>
                <mxCell id="0"/>
                <mxCell id="1" parent="0"/>
                <mxCell id="4" value="images" style="rounded=0;whiteSpace=wrap;html=1;" vertex="1" parent="1">
                    <mxGeometry x="383.5" y="467" width="177" height="30" as="geometry"/>
                </mxCell>
                <mxCell id="5" value="card" style="rounded=0;whiteSpace=wrap;html=1;fontSize=12;align=center;labelPosition=center;verticalLabelPosition=middle;verticalAlign=middle;" vertex="1" parent="1">
                    <mxGeometry x="390" y="90" width="80" height="30" as="geometry"/>
                </mxCell>
                <mxCell id="6" value="user_id&lt;br&gt;customer_id&lt;br&gt;card_id&lt;br&gt;" style="whiteSpace=wrap;html=1;aspect=fixed;fontSize=12;" vertex="1" parent="1">
                    <mxGeometry x="390" y="120" width="80" height="80" as="geometry"/>
                </mxCell>
                <mxCell id="7" value="&lt;br style=&quot;font-size: 12px;&quot;&gt;users&lt;br style=&quot;font-size: 12px;&quot;&gt;" style="rounded=0;whiteSpace=wrap;html=1;fontSize=12;align=center;labelPosition=center;verticalLabelPosition=middle;verticalAlign=middle;" vertex="1" parent="1">
                    <mxGeometry x="50" y="90" width="180" height="30" as="geometry"/>
                </mxCell>
                <mxCell id="8" value="nickname&lt;br&gt;email&lt;br&gt;user_password&lt;br&gt;user_image&lt;br&gt;family_name&lt;br&gt;first_name&lt;br&gt;family_name_kana&lt;br&gt;first_name_kana&lt;br&gt;birth_day&lt;br&gt;introduction" style="whiteSpace=wrap;html=1;aspect=fixed;fontSize=12;" vertex="1" parent="1">
                    <mxGeometry x="50" y="120" width="181" height="181" as="geometry"/>
                </mxCell>
                <mxCell id="10" value="name&lt;br&gt;price&lt;br&gt;description&lt;br&gt;status&lt;br&gt;judgment&lt;br&gt;size&lt;br&gt;cost&lt;br&gt;days&lt;br&gt;prefecture_id&lt;br&gt;category_id&lt;br&gt;brand_id&lt;br&gt;user_id" style="whiteSpace=wrap;html=1;aspect=fixed;fontSize=12;" vertex="1" parent="1">
                    <mxGeometry x="50" y="464" width="180" height="180" as="geometry"/>
                </mxCell>
                <mxCell id="11" value="product" style="rounded=0;whiteSpace=wrap;html=1;" vertex="1" parent="1">
                    <mxGeometry x="50" y="434" width="180" height="30" as="geometry"/>
                </mxCell>
                <mxCell id="12" value="name" style="rounded=0;whiteSpace=wrap;html=1;" vertex="1" parent="1">
                    <mxGeometry x="50" y="763" width="180" height="30" as="geometry"/>
                </mxCell>
                <mxCell id="13" value="brand" style="rounded=0;whiteSpace=wrap;html=1;" vertex="1" parent="1">
                    <mxGeometry x="50" y="733" width="180" height="30" as="geometry"/>
                </mxCell>
                <mxCell id="14" value="&lt;br&gt;image&lt;br&gt;product_id&lt;br&gt;purchase_id" style="rounded=0;whiteSpace=wrap;html=1;" vertex="1" parent="1">
                    <mxGeometry x="382" y="495" width="180" height="69" as="geometry"/>
                </mxCell>
                <mxCell id="31" value="" style="shape=waypoint;sketch=0;size=6;pointerEvents=1;points=[];fillColor=default;resizable=0;rotatable=0;perimeter=centerPerimeter;snapToPoint=1;fontSize=12;" vertex="1" parent="1">
                    <mxGeometry x="350" y="300" width="20" height="20" as="geometry"/>
                </mxCell>
                <mxCell id="32" value="" style="shape=waypoint;sketch=0;size=6;pointerEvents=1;points=[];fillColor=default;resizable=0;rotatable=0;perimeter=centerPerimeter;snapToPoint=1;fontSize=12;" vertex="1" parent="1">
                    <mxGeometry x="226" y="200" width="20" height="20" as="geometry"/>
                </mxCell>
                <mxCell id="79" style="edgeStyle=none;shape=link;html=1;exitX=0;exitY=0.5;exitDx=0;exitDy=0;exitPerimeter=0;fontSize=3;" edge="1" parent="1">
                    <mxGeometry relative="1" as="geometry">
                        <mxPoint x="241" y="148.33333333333337" as="targetPoint"/>
                        <mxPoint x="241" y="148" as="sourcePoint"/>
                    </mxGeometry>
                </mxCell>
                <mxCell id="55" style="edgeStyle=none;shape=link;html=1;fontSize=3;width=0;" edge="1" parent="1" source="52">
                    <mxGeometry relative="1" as="geometry">
                        <mxPoint x="232" y="268" as="targetPoint"/>
                    </mxGeometry>
                </mxCell>
                <mxCell id="57" value="" style="edgeStyle=none;shape=link;html=1;fontSize=3;exitX=1;exitY=0.5;exitDx=0;exitDy=0;exitPerimeter=0;width=0;entryX=0;entryY=1;entryDx=0;entryDy=0;" edge="1" parent="1" source="52" target="70">
                    <mxGeometry relative="1" as="geometry">
                        <mxPoint x="380" y="272.09000000000003" as="targetPoint"/>
                    </mxGeometry>
                </mxCell>
                <mxCell id="52" value="" style="shape=crossbar;whiteSpace=wrap;html=1;rounded=1;fontSize=3;" vertex="1" parent="1">
                    <mxGeometry x="253" y="258" width="102" height="20" as="geometry"/>
                </mxCell>
                <mxCell id="58" value="" style="verticalLabelPosition=bottom;shadow=0;dashed=0;align=center;html=1;verticalAlign=top;shape=mxgraph.electrical.radio.aerial_-_antenna_1;fontSize=3;direction=west;" vertex="1" parent="1">
                    <mxGeometry x="114" y="303" width="33" height="130" as="geometry"/>
                </mxCell>
                <mxCell id="59" value="" style="verticalLabelPosition=bottom;shadow=0;dashed=0;align=center;html=1;verticalAlign=top;shape=mxgraph.electrical.radio.aerial_-_antenna_1;fontSize=3;direction=east;" vertex="1" parent="1">
                    <mxGeometry x="120" y="644" width="32" height="87" as="geometry"/>
                </mxCell>
                <mxCell id="62" value="" style="verticalLabelPosition=bottom;shadow=0;dashed=0;align=center;html=1;verticalAlign=top;shape=mxgraph.electrical.radio.aerial_-_antenna_1;fontSize=3;direction=south;" vertex="1" parent="1">
                    <mxGeometry x="231" y="505" width="150" height="21" as="geometry"/>
                </mxCell>
                <mxCell id="63" value="" style="verticalLabelPosition=bottom;shadow=0;dashed=0;align=center;html=1;verticalAlign=top;shape=mxgraph.electrical.radio.aerial_-_antenna_1;fontSize=3;direction=north;" vertex="1" parent="1">
                    <mxGeometry x="231" y="609" width="168" height="21" as="geometry"/>
                </mxCell>
                <mxCell id="66" value="family_name&lt;br&gt;first_name&lt;br&gt;family_name_kana&lt;br&gt;first_name_kana&lt;br&gt;post_code&lt;br&gt;prefecture&lt;br&gt;city&lt;br&gt;adress&lt;br&gt;building_number&lt;br&gt;user_id" style="whiteSpace=wrap;html=1;aspect=fixed;fontSize=12;" vertex="1" parent="1">
                    <mxGeometry x="386" y="267" width="181" height="181" as="geometry"/>
                </mxCell>
                <mxCell id="70" value="destination" style="rounded=0;whiteSpace=wrap;html=1;fontSize=12;align=center;labelPosition=center;verticalLabelPosition=middle;verticalAlign=middle;" vertex="1" parent="1">
                    <mxGeometry x="387" y="237" width="180" height="30" as="geometry"/>
                </mxCell>
                <mxCell id="71" value="category" style="rounded=0;whiteSpace=wrap;html=1;" vertex="1" parent="1">
                    <mxGeometry x="399" y="588" width="180" height="30" as="geometry"/>
                </mxCell>
                <mxCell id="72" value="name&lt;br&gt;ancestry" style="rounded=0;whiteSpace=wrap;html=1;" vertex="1" parent="1">
                    <mxGeometry x="399" y="618" width="180" height="30" as="geometry"/>
                </mxCell>
                <mxCell id="87" style="edgeStyle=none;shape=link;html=1;fontSize=3;width=0.6666666666666661;" edge="1" parent="1" source="80">
                    <mxGeometry relative="1" as="geometry">
                        <mxPoint x="388.66666666666663" y="137" as="targetPoint"/>
                        <Array as="points">
                            <mxPoint x="375" y="137"/>
                        </Array>
                    </mxGeometry>
                </mxCell>
                <mxCell id="89" style="edgeStyle=none;shape=link;html=1;fontSize=3;width=0.6666666666666661;" edge="1" parent="1" source="80">
                    <mxGeometry relative="1" as="geometry">
                        <mxPoint x="232" y="137" as="targetPoint"/>
                        <Array as="points"/>
                    </mxGeometry>
                </mxCell>
                <mxCell id="80" value="" style="shape=crossbar;whiteSpace=wrap;html=1;rounded=1;fontSize=3;" vertex="1" parent="1">
                    <mxGeometry x="260" y="127" width="101" height="20" as="geometry"/>
                </mxCell>
            </root>
        </mxGraphModel>
    </diagram>
</mxfile>